<?xml version="1.0" standalone="no"?>
<!DOCTYPE svg PUBLIC "-//W3C//DTD SVG 20010904//EN"
 "http://www.w3.org/TR/2001/REC-SVG-20010904/DTD/svg10.dtd">
<svg version="1.0" xmlns="http://www.w3.org/2000/svg"
 width="12293.000000pt" height="2372.000000pt" viewBox="0 0 12293.000000 2372.000000"
 preserveAspectRatio="xMidYMid meet">

<g transform="translate(0.000000,2372.000000) scale(0.100000,-0.100000)"
fill="#000000" stroke="none">
<path d="M19675 21488 c-82 -16 -267 -51 -410 -79 -504 -97 -623 -132 -964
-284 -945 -420 -1818 -990 -2651 -1730 -188 -167 -632 -607 -818 -810 -496
-542 -938 -1111 -1355 -1747 -205 -312 -288 -447 -709 -1166 -722 -1232 -1009
-1712 -1384 -2312 -883 -1414 -1671 -2495 -2499 -3425 -428 -482 -1004 -1050
-1380 -1361 -619 -512 -1241 -841 -1809 -956 -94 -19 -143 -23 -316 -23 -178
0 -219 3 -310 23 -277 62 -510 193 -725 407 -370 367 -611 906 -714 1595 -40
271 -46 367 -45 730 0 381 13 537 70 870 201 1178 829 2439 1858 3730 981
1232 2356 2536 4011 3805 411 315 480 370 815 644 848 696 1049 838 1610 1146
118 65 301 169 405 232 204 122 413 229 510 262 34 11 53 22 45 25 -18 6 -571
58 -910 86 -1557 127 -3100 142 -4360 45 -1595 -124 -3088 -432 -4020 -830
-286 -122 -512 -243 -765 -411 -344 -227 -632 -490 -934 -854 -721 -866 -1034
-1847 -806 -2525 180 -539 703 -1021 1393 -1285 62 -24 114 -41 117 -38 3 3
-28 142 -69 309 -122 497 -175 766 -213 1069 -27 220 -25 683 5 877 84 555
284 1017 624 1442 667 832 1890 1448 3528 1775 1491 298 3388 382 5280 235
146 -11 266 -22 268 -23 2 -3 -272 -121 -523 -226 -258 -107 -489 -253 -960
-605 -392 -293 -791 -619 -1258 -1028 -911 -797 -3184 -2903 -3818 -3536 -495
-495 -745 -792 -1124 -1331 -1017 -1449 -1515 -2553 -1641 -3638 -24 -205 -24
-615 -1 -812 87 -716 345 -1295 829 -1855 297 -343 704 -665 1063 -840 162
-80 273 -118 434 -152 164 -34 424 -38 595 -10 560 94 1146 420 1938 1078
1047 871 1987 1941 3349 3814 655 900 754 1050 1196 1810 471 810 555 955 676
1155 147 243 333 539 447 710 124 187 314 493 520 840 412 695 589 980 793
1275 816 1184 1697 2080 2710 2759 741 496 1567 879 2437 1130 179 52 173 55
-35 14z"/>
<path d="M42895 21003 c-22 -1 -103 -8 -180 -13 -581 -45 -1225 -198 -1835
-435 -988 -384 -1994 -1041 -2788 -1820 l-184 -180 -182 -275 c-294 -441 -486
-765 -687 -1155 -383 -744 -611 -1426 -696 -2080 -25 -199 -25 -688 0 -860 66
-442 205 -816 425 -1145 126 -189 204 -283 371 -451 164 -163 303 -278 499
-410 72 -49 132 -91 132 -93 0 -2 -72 -128 -160 -279 -88 -152 -210 -347 -272
-434 -926 -1305 -1893 -2299 -2869 -2950 -878 -586 -1729 -899 -2619 -964
-200 -14 -581 -7 -765 15 -496 60 -940 190 -1348 395 -319 161 -487 288 -828
630 -350 351 -551 622 -737 996 -160 321 -256 635 -309 1015 -25 178 -25 682
0 859 103 723 365 1331 945 2196 423 630 632 888 920 1134 527 449 854 680
1192 839 63 30 190 90 282 133 238 113 336 143 543 168 653 78 1194 59 1670
-58 719 -177 1246 -602 1447 -1166 l28 -80 -6 60 c-73 776 -620 1277 -1616
1479 -378 77 -678 101 -1183 93 -491 -8 -608 -20 -943 -103 -1054 -258 -1942
-743 -2666 -1453 -359 -353 -635 -701 -869 -1099 -238 -402 -492 -1044 -617
-1562 -28 -113 -54 -216 -59 -230 -4 -14 -77 -122 -161 -240 -84 -118 -219
-307 -299 -420 -543 -766 -1073 -1410 -1605 -1949 -484 -490 -895 -829 -1306
-1078 -392 -237 -693 -351 -990 -373 -63 -5 -180 -14 -260 -20 -496 -38 -837
97 -974 383 -53 112 -73 192 -85 338 -16 201 9 440 75 697 83 327 327 877 563
1270 366 610 779 1060 1511 1647 271 217 454 379 636 560 257 256 364 403 499
680 146 300 239 598 286 920 21 135 18 476 -4 595 -82 441 -384 852 -847 1153
-559 363 -1201 394 -1960 95 -576 -227 -1299 -715 -1950 -1316 -94 -86 -212
-193 -263 -236 -50 -44 -135 -123 -187 -175 l-95 -96 17 85 c58 282 85 696 59
916 -76 649 -421 1060 -1004 1199 -158 37 -253 47 -507 48 -212 2 -245 0 -335
-21 -372 -84 -784 -299 -1254 -654 -811 -614 -1813 -1678 -2811 -2986 -173
-227 -449 -604 -450 -613 0 -7 164 -39 197 -39 12 0 29 20 52 63 163 298 457
701 796 1087 638 728 1620 1643 2646 2466 224 180 242 192 355 241 247 106
393 138 644 138 197 0 276 -11 455 -61 353 -99 568 -344 657 -749 26 -117 35
-461 19 -672 -31 -386 -96 -677 -192 -863 -23 -43 -1065 -1487 -2418 -3350
-1309 -1801 -2378 -3276 -2378 -3277 6 -5 852 78 858 84 4 4 84 127 176 273
1031 1620 2064 3108 2962 4265 1197 1544 2173 2628 2942 3267 971 807 1808
1108 2470 888 183 -61 333 -145 490 -276 208 -173 333 -357 390 -574 27 -106
36 -308 20 -434 -63 -472 -380 -1047 -905 -1644 -154 -175 -308 -328 -531
-528 -241 -215 -768 -739 -963 -956 -932 -1042 -1392 -1922 -1395 -2673 0
-216 28 -379 100 -560 74 -187 165 -313 343 -473 154 -139 272 -221 435 -302
214 -106 376 -152 612 -172 432 -37 965 115 1496 429 462 273 907 631 1422
1147 615 616 1218 1357 1749 2151 l121 181 1 -291 c0 -319 12 -448 64 -705
149 -740 532 -1354 1180 -1896 695 -580 1730 -1050 2785 -1264 240 -49 333
-57 490 -41 648 66 1245 233 2045 573 457 194 810 392 1055 592 44 36 121 94
170 128 332 228 736 545 1010 792 267 241 889 843 1086 1052 248 262 359 386
572 638 385 453 488 600 764 1083 l24 43 67 -34 c348 -175 907 -350 1372 -430
281 -48 419 -60 695 -61 270 0 343 7 461 46 81 26 101 49 106 118 5 80 2 81
-277 81 -782 1 -1497 99 -2035 280 -211 71 -315 116 -314 134 2 22 230 443
340 627 273 459 883 1324 1373 1948 328 418 375 483 995 1405 470 699 727
1019 1162 1446 638 625 1429 1175 2414 1678 124 63 268 138 320 168 52 29 127
65 165 79 39 15 72 29 74 31 12 12 -401 -41 -560 -71 -1538 -297 -3001 -1337
-4256 -3025 -304 -409 -478 -686 -773 -1235 -63 -115 -152 -273 -198 -350 -95
-158 -173 -309 -209 -405 -32 -85 -134 -281 -350 -670 -190 -342 -821 -1450
-833 -1463 -8 -9 -213 125 -310 202 -189 152 -337 312 -470 506 -196 288 -320
618 -381 1015 -27 172 -37 603 -20 813 53 632 244 1343 561 2087 226 529 503
1058 688 1317 958 1333 2391 2187 4042 2407 321 43 449 51 810 51 367 0 442
-6 915 -65 1686 -212 2708 -760 2990 -1603 59 -176 69 -253 70 -502 0 -201 -3
-244 -23 -345 -58 -287 -160 -561 -297 -795 -32 -55 -81 -147 -110 -205 -178
-358 -374 -629 -675 -931 -311 -313 -596 -526 -1016 -760 -798 -445 -1923
-773 -2931 -853 -182 -15 -201 -22 -235 -87 -19 -37 -44 -146 -36 -154 3 -3
99 -32 214 -64 1465 -415 2356 -1156 2614 -2175 63 -251 75 -352 74 -661 0
-228 -4 -293 -23 -415 -40 -264 -99 -492 -183 -710 -22 -58 -64 -170 -94 -250
-258 -696 -735 -1249 -1449 -1680 -156 -94 -539 -282 -734 -360 -624 -250
-1411 -431 -2236 -515 -400 -41 -544 -47 -1095 -52 -433 -3 -558 -7 -570 -17
-8 -7 -59 -49 -112 -94 l-98 -81 43 -6 c74 -10 464 -34 752 -46 312 -13 1177
-7 1415 10 904 65 1590 182 2266 385 1180 356 2130 957 2676 1693 183 246 424
738 567 1157 304 888 261 1656 -128 2312 -377 636 -1116 1159 -2101 1487 -201
67 -381 117 -577 162 -81 18 -141 35 -133 38 8 3 78 20 155 37 383 87 951 237
1330 351 2405 724 3755 1667 4009 2801 72 318 52 631 -61 972 -93 280 -281
606 -470 813 -87 96 -667 498 -993 687 -189 110 -578 309 -755 386 -712 309
-1396 479 -2125 530 -131 9 -596 11 -695 3z"/>
<path d="M99856 20230 c-1813 -75 -3558 -478 -5301 -1225 -1749 -750 -3486
-1874 -4987 -3227 -526 -474 -1108 -1068 -1261 -1286 -101 -145 -305 -386
-596 -707 -245 -270 -422 -455 -435 -455 -19 0 -242 -231 -279 -290 -95 -150
-2652 -2716 -4392 -4407 l-310 -301 -675 -532 c-371 -293 -679 -536 -685 -542
-17 -17 145 60 250 119 1011 564 2953 2358 5723 5291 328 347 334 352 373 352
21 0 1100 41 2397 90 1296 50 2380 89 2408 88 l51 -3 -64 -115 c-171 -304
-376 -693 -568 -1075 -180 -358 -233 -453 -357 -645 -1191 -1833 -2557 -3114
-3953 -3708 -371 -158 -812 -278 -1095 -298 -80 -5 -106 -12 -167 -41 -78 -38
-143 -93 -143 -122 0 -21 36 -56 70 -67 35 -11 219 -6 390 12 1004 102 2049
585 3102 1436 638 516 1318 1215 1870 1923 191 246 279 369 447 630 692 1075
2247 3281 4448 6310 l364 500 217 219 c651 656 1261 1115 1912 1440 725 361
1371 496 2170 453 267 -14 340 -9 409 26 82 41 81 74 -3 116 -31 16 -77 27
-130 32 -121 12 -972 19 -1200 9z m-2671 -609 c-11 -10 -74 -65 -140 -121
-523 -446 -1171 -1095 -1710 -1710 -1025 -1171 -2045 -2611 -2945 -4155 -67
-115 -126 -214 -130 -219 -7 -7 -4075 -75 -4553 -76 l-169 0 59 63 c764 830
1112 1211 1463 1605 886 992 2413 2136 4075 3054 436 241 985 519 1325 672 96
43 270 124 385 179 734 349 1356 566 1942 677 145 28 294 48 363 49 54 1 54 1
35 -18z"/>
<path d="M120732 19698 c-270 -480 -740 -1091 -1313 -1708 -413 -445 -1092
-1085 -1591 -1498 -116 -96 -142 -132 -94 -132 62 0 672 334 1141 625 798 495
1428 978 1920 1470 382 381 626 705 795 1050 59 121 136 313 128 320 -2 1
-206 6 -454 10 l-450 7 -82 -144z"/>
<path d="M75076 18241 l-99 -16 -69 -115 c-165 -274 -365 -556 -568 -801 -139
-166 -534 -559 -695 -690 -697 -568 -1487 -930 -2346 -1073 -296 -50 -416 -59
-761 -62 l-327 -2 -36 -29 -36 -30 223 -7 c123 -3 720 -13 1328 -22 608 -9
1107 -18 1108 -20 2 -1 -11 -22 -30 -46 -67 -88 -3642 -4598 -3763 -4748 -69
-85 -155 -193 -192 -240 -415 -526 -1041 -1188 -1507 -1594 -980 -854 -1920
-1316 -2675 -1316 -125 0 -280 24 -333 51 -481 244 -623 737 -433 1505 89 360
315 905 496 1196 243 392 974 1333 2643 3403 1445 1792 1926 2413 1926 2487 0
19 -4 20 -62 14 -130 -15 -605 -159 -688 -208 -350 -211 -1168 -1121 -2276
-2533 -420 -535 -1027 -1333 -1198 -1575 -494 -697 -1040 -1200 -1631 -1500
-430 -219 -835 -320 -1282 -320 -194 0 -358 17 -507 52 l-88 20 5 52 c20 175
29 487 24 855 -8 595 -34 803 -168 1331 -105 413 -149 678 -191 1150 -17 192
-17 787 0 950 79 765 312 1338 793 1949 109 137 374 403 514 515 61 48 171
128 245 178 74 50 137 92 140 95 3 2 -72 -34 -165 -81 -94 -46 -306 -150 -472
-229 -441 -211 -692 -352 -1043 -582 -324 -212 -522 -368 -744 -585 -182 -178
-280 -288 -565 -630 -218 -262 -220 -264 -561 -645 -396 -443 -572 -667 -798
-1010 -68 -104 -162 -246 -208 -315 -84 -126 -104 -165 -104 -201 0 -18 2 -19
30 -4 29 15 45 33 159 176 83 104 644 666 1004 1004 163 154 370 349 460 434
89 84 198 183 242 218 75 61 265 193 277 193 3 0 -12 -54 -33 -121 -58 -177
-206 -708 -229 -820 -64 -312 -49 -673 46 -1162 33 -169 53 -233 134 -417 97
-224 113 -269 180 -528 34 -128 69 -252 79 -276 42 -96 81 -233 97 -334 9 -59
32 -179 51 -267 32 -147 36 -182 46 -430 24 -571 10 -834 -58 -1167 -98 -478
-336 -971 -678 -1401 -274 -346 -603 -579 -1019 -721 -434 -148 -1050 -173
-1583 -64 -500 102 -949 338 -1309 688 -256 250 -420 499 -516 789 -54 160
-71 267 -77 466 -15 527 182 1061 582 1575 239 307 318 474 319 675 1 152 -49
257 -148 307 -62 32 -167 36 -253 10 -161 -50 -277 -152 -530 -467 -615 -765
-1330 -1516 -1983 -2081 -1009 -872 -2003 -1422 -2898 -1603 -262 -53 -391
-66 -677 -66 -283 0 -385 9 -618 56 -344 68 -662 215 -879 405 -266 233 -423
580 -469 1038 -17 172 -6 598 20 793 75 552 249 1122 529 1728 l60 129 153 18
c85 9 271 26 414 38 870 70 1587 229 2290 507 892 353 1631 862 2095 1443 278
348 481 745 566 1106 26 109 28 135 28 319 0 185 -2 207 -26 297 -32 116 -89
241 -155 340 -71 106 -212 250 -313 317 -273 182 -512 199 -1015 71 -1162
-295 -2345 -1152 -3641 -2635 -415 -475 -907 -1075 -1157 -1410 -146 -195
-360 -516 -457 -685 -515 -895 -659 -1807 -408 -2570 120 -365 324 -688 614
-970 126 -123 234 -210 349 -280 185 -114 439 -209 693 -259 922 -184 1935
-39 2960 423 792 356 1681 973 2463 1708 205 193 327 323 511 542 156 187 229
246 304 246 25 0 58 -7 74 -15 31 -16 75 -82 90 -136 15 -52 29 -218 40 -469
11 -250 33 -428 74 -604 196 -823 667 -1398 1416 -1729 301 -132 607 -210
1003 -254 207 -22 661 -22 882 1 583 61 1119 200 1504 392 480 238 890 628
1139 1082 186 338 325 764 397 1212 15 91 29 175 31 186 4 21 5 21 61 8 158
-37 279 -48 513 -48 251 -1 381 12 615 60 389 81 820 239 1168 431 65 35 120
63 122 61 1 -2 -39 -76 -91 -166 -397 -697 -534 -1439 -379 -2050 56 -222 146
-427 263 -603 103 -153 147 -195 279 -262 333 -170 681 -214 1093 -136 621
117 1351 521 2150 1187 447 373 1064 980 1494 1470 50 56 91 100 92 99 2 -1
-6 -32 -16 -69 -39 -142 -53 -258 -54 -443 0 -205 16 -332 68 -539 63 -248
135 -409 290 -646 414 -636 976 -997 1686 -1085 144 -17 457 -20 611 -5 474
47 1002 203 1484 440 215 105 314 164 429 254 350 273 1126 1062 2091 2126
147 162 276 304 287 315 10 11 -9 -29 -43 -90 -33 -60 -67 -114 -73 -120 -25
-20 -104 -254 -140 -415 -52 -227 -70 -573 -42 -813 43 -374 157 -728 323
-1009 86 -144 216 -238 448 -322 55 -20 159 -61 230 -91 730 -302 1454 -354
2230 -159 1021 257 2078 928 3155 2004 619 619 1232 1364 1782 2165 180 262
258 395 318 539 286 688 457 1298 511 1821 18 174 15 494 -5 645 -84 623 -392
1065 -917 1314 -648 308 -1559 305 -2421 -8 -650 -236 -1323 -649 -1988 -1220
-840 -722 -1757 -1779 -2530 -2920 -246 -362 -945 -1136 -2141 -2371 -609
-629 -964 -976 -1099 -1077 -266 -197 -596 -377 -905 -493 -202 -76 -647 -175
-945 -209 -927 -108 -1486 166 -1595 781 -39 220 3 781 80 1048 50 176 196
631 227 710 101 258 633 1229 1098 2005 528 880 1300 2073 1969 3045 42 61 85
128 96 150 31 62 131 156 210 197 135 69 287 102 525 113 492 23 3226 232
3468 265 114 16 172 67 172 152 0 34 -3 38 -25 38 -14 0 -486 -32 -1048 -70
-1359 -93 -1351 -93 -1512 -86 -443 20 -690 111 -768 284 -30 67 -29 176 4
257 14 33 273 494 577 1024 304 529 552 965 552 967 0 6 -27 3 -134 -15z
m-22305 -2463 c117 -54 169 -145 169 -297 0 -338 -234 -1045 -509 -1535 -486
-866 -1244 -1469 -2271 -1804 -360 -118 -706 -189 -1150 -239 -155 -17 -572
-25 -586 -11 -3 4 33 80 81 170 321 595 721 1219 957 1493 256 296 941 902
1658 1466 441 347 865 614 1135 714 215 80 402 96 516 43z m29404 -127 c1004
-208 1417 -897 1229 -2045 -130 -794 -564 -1813 -1214 -2851 -572 -914 -1112
-1586 -1715 -2133 -917 -831 -1871 -1273 -2871 -1332 -453 -27 -973 57 -1255
202 -228 117 -374 360 -436 723 -15 89 -18 163 -18 390 1 298 12 424 61 695
52 285 83 397 154 560 263 602 552 1181 847 1694 685 1192 1466 2157 2318
2867 809 674 1710 1120 2505 1242 149 23 237 21 395 -12z"/>
<path d="M69795 18096 c-122 -28 -210 -76 -455 -250 -268 -191 -349 -274 -521
-533 -94 -143 -108 -181 -94 -270 16 -111 67 -158 170 -156 107 2 233 60 460
213 72 48 225 147 340 220 281 178 354 230 413 295 61 67 76 119 58 198 -16
65 -66 165 -106 211 -61 69 -159 95 -265 72z"/>
<path d="M106000 15784 c-509 -62 -1051 -302 -1600 -710 -97 -71 -520 -476
-520 -496 0 -16 38 12 217 158 218 178 370 281 545 367 226 111 419 173 678
219 163 29 437 31 580 5 537 -98 841 -383 916 -858 28 -174 11 -487 -35 -655
-30 -109 -388 -650 -760 -1144 -553 -737 -1513 -1851 -2256 -2620 -112 -116
-172 -197 -303 -412 -336 -551 -493 -1073 -442 -1474 44 -350 232 -644 545
-849 166 -109 331 -180 560 -240 187 -50 304 -65 500 -65 618 0 1293 278 2040
840 499 376 946 805 1467 1410 l47 55 1 -130 c2 -671 173 -1188 509 -1537 104
-109 215 -200 326 -268 285 -175 732 -295 942 -252 250 50 560 195 872 405
301 203 555 421 927 792 423 422 778 833 1169 1350 54 72 104 136 111 144 7 7
-16 -58 -51 -145 -249 -622 -289 -1190 -119 -1702 70 -213 212 -468 322 -579
85 -87 333 -198 532 -238 107 -22 366 -30 486 -16 670 82 1435 504 2329 1286
492 429 1121 1091 1580 1660 l113 140 -18 88 c-9 48 -19 90 -21 92 -2 2 -67
-78 -144 -177 -1235 -1592 -2410 -2548 -3387 -2754 -182 -38 -433 -44 -577
-14 -287 59 -514 246 -620 510 -54 137 -66 220 -65 460 1 190 4 231 28 355 92
482 328 1064 588 1451 293 437 851 1167 1982 2594 1086 1371 1286 1623 1502
1900 508 652 744 978 744 1028 0 19 -65 11 -205 -24 -121 -30 -425 -129 -480
-157 -243 -121 -841 -765 -1651 -1777 -677 -846 -1291 -1663 -2042 -2720 -272
-382 -518 -724 -547 -760 -427 -524 -1072 -1244 -1515 -1694 -606 -614 -1037
-964 -1425 -1156 -154 -77 -252 -111 -383 -136 -227 -43 -588 18 -750 126
-108 73 -323 252 -358 299 -50 68 -119 214 -148 313 -68 235 -75 545 -20 878
22 130 95 415 137 531 119 332 1642 2786 3640 5864 147 226 263 411 258 413
-14 5 -564 -108 -627 -129 -78 -25 -149 -75 -317 -220 -151 -132 -202 -195
-284 -347 -31 -59 -167 -303 -303 -542 -136 -239 -545 -961 -909 -1604 -364
-643 -737 -1288 -828 -1435 -810 -1299 -1586 -2289 -2349 -2995 -679 -629
-1357 -1014 -1936 -1100 -134 -20 -349 -21 -463 -1 -88 16 -266 80 -386 140
-246 124 -441 320 -529 532 -63 152 -73 209 -74 423 -1 164 3 213 22 307 147
728 731 1658 1687 2683 1267 1360 1978 2506 1978 3190 1 139 -14 197 -85 330
-233 437 -533 688 -924 770 -96 20 -341 34 -424 24z"/>
<path d="M99410 15763 c-327 -32 -521 -72 -825 -170 -675 -218 -1387 -642
-2135 -1268 -466 -391 -1041 -960 -1411 -1398 -982 -1160 -1553 -2229 -1700
-3187 -30 -195 -33 -568 -6 -735 76 -463 258 -833 573 -1165 117 -123 313
-293 369 -320 50 -24 253 -65 416 -84 1003 -118 2147 201 3123 871 59 41 109
73 111 71 1 -2 -1185 -1704 -2636 -3783 -1451 -2079 -2638 -3786 -2638 -3793
-1 -10 45 -12 211 -10 l211 3 5289 7275 c2908 4001 5288 7278 5288 7283 0 4
-191 7 -423 7 -391 0 -425 -1 -439 -17 -9 -10 -354 -504 -768 -1098 -414 -594
-756 -1084 -760 -1088 -4 -5 1 33 12 85 55 267 80 579 67 826 -25 455 -164
834 -420 1147 -61 75 -215 227 -290 288 -146 117 -483 226 -793 256 -101 10
-344 12 -426 4z m701 -562 c328 -67 602 -231 815 -487 85 -102 130 -278 141
-544 14 -355 -63 -791 -226 -1279 -98 -292 -267 -707 -330 -807 -14 -23 -465
-670 -1001 -1439 l-975 -1398 -160 -150 c-830 -776 -1635 -1273 -2361 -1456
-294 -74 -581 -103 -831 -83 -81 6 -187 19 -235 27 -48 9 -119 17 -158 19
-214 11 -395 217 -479 546 -54 213 -66 337 -65 710 0 285 4 359 22 496 146
1091 671 2269 1476 3309 232 300 454 552 751 854 248 252 362 353 625 550 869
654 1704 1054 2390 1146 150 20 472 13 601 -14z"/>
</g>
</svg>
